<?xml version="1.0" encoding="UTF-8" standalone="no"?>
<!-- Created with Inkscape (http://www.inkscape.org/) -->

<svg
   xmlns:osb="http://www.openswatchbook.org/uri/2009/osb"
   xmlns:dc="http://purl.org/dc/elements/1.1/"
   xmlns:cc="http://creativecommons.org/ns#"
   xmlns:rdf="http://www.w3.org/1999/02/22-rdf-syntax-ns#"
   xmlns:svg="http://www.w3.org/2000/svg"
   xmlns="http://www.w3.org/2000/svg"
   xmlns:sodipodi="http://sodipodi.sourceforge.net/DTD/sodipodi-0.dtd"
   xmlns:inkscape="http://www.inkscape.org/namespaces/inkscape"
   width="800"
   height="800"
   id="svg2"
   version="1.1"
   inkscape:version="0.48.4 r9939"
   sodipodi:docname="point - コピー.svg"
   inkscape:export-filename="C:\git_workspace\100km-design\crest\bitmap\vortex_white_from_vector.png"
   inkscape:export-xdpi="75.482964"
   inkscape:export-ydpi="75.482964">
  <defs
     id="defs4">
    <linearGradient
       id="linearGradient3837"
       osb:paint="solid">
      <stop
         style="stop-color:#000000;stop-opacity:1;"
         offset="0"
         id="stop3839" />
    </linearGradient>
    <linearGradient
       id="linearGradient3831"
       osb:paint="solid">
      <stop
         style="stop-color:#000000;stop-opacity:1;"
         offset="0"
         id="stop3833" />
    </linearGradient>
  </defs>
  <sodipodi:namedview
     id="base"
     pagecolor="#ffffff"
     bordercolor="#666666"
     borderopacity="1.0"
     inkscape:pageopacity="0.0"
     inkscape:pageshadow="2"
     inkscape:zoom="0.087500001"
     inkscape:cx="-2326.0573"
     inkscape:cy="-870.62707"
     inkscape:document-units="px"
     inkscape:current-layer="layer2"
     showgrid="false"
     inkscape:window-width="1280"
     inkscape:window-height="962"
     inkscape:window-x="-8"
     inkscape:window-y="-8"
     inkscape:window-maximized="1"
     showguides="false">
    <inkscape:grid
       type="xygrid"
       id="grid3851"
       empspacing="5"
       visible="true"
       enabled="true"
       snapvisiblegridlinesonly="true" />
  </sodipodi:namedview>
  <metadata
     id="metadata7">
    <rdf:RDF>
      <cc:Work
         rdf:about="">
        <dc:format>image/svg+xml</dc:format>
        <dc:type
           rdf:resource="http://purl.org/dc/dcmitype/StillImage" />
        <dc:title></dc:title>
      </cc:Work>
    </rdf:RDF>
  </metadata>
  <g
     inkscape:label="Back"
     inkscape:groupmode="layer"
     id="layer1"
     transform="translate(0,-252.36218)"
     style="opacity:0.27878789;display:inline" />
  <g
     inkscape:groupmode="layer"
     id="layer2"
     inkscape:label="レイヤー"
     style="display:inline;opacity:1">
    <path
       style="fill:none;stroke:none"
       d="m 325.70043,8.5789565 83.37002,-81.2220845 0,0 79.12174,81.2141291"
       id="path3797"
       inkscape:connector-curvature="0" />
    <path
       style="fill:none;stroke:none"
       d="M 5.7226969,320.31282 325.70043,8.5789565"
       id="path3795"
       inkscape:connector-curvature="0" />
    <path
       style="fill:none;stroke:none"
       d="M 5.7118832,491.37344 -79.784033,403.61656 5.7226969,320.31282"
       id="path3793"
       inkscape:connector-curvature="0" />
    <path
       style="fill:none;stroke:none"
       d="M 311.94934,805.70941 5.7118832,491.37344"
       id="path3791"
       inkscape:connector-curvature="0" />
    <path
       style="fill:none;stroke:none"
       d="m 463.00661,805.71371 -77.49746,75.50082 -73.55981,-75.50512"
       id="path3789"
       inkscape:connector-curvature="0" />
    <path
       style="fill:none;stroke:none"
       d="M 802.83363,474.64195 463.00661,805.71371"
       id="path3787"
       inkscape:connector-curvature="0" />
    <path
       style="fill:none;stroke:none"
       d="m 802.8286,331.52804 71.53503,73.42679 -71.53,69.68712"
       id="path3785"
       inkscape:connector-curvature="0" />
    <path
       style="fill:none;stroke:none"
       d="M 488.19219,8.5710011 802.8286,331.52804"
       id="rect3010"
       inkscape:connector-curvature="0" />
    <path
       inkscape:connector-curvature="0"
       style="fill:none;stroke:#000000;stroke-width:44.72154617000000300;stroke-miterlimit:4;stroke-opacity:1;stroke-dasharray:none;display:inline"
       d="M 304.97389,42.580216 45.880289,310.07791 46.853114,493.96623 316.93544,755.53384 500.82375,754.56102 759.83395,487.14761 758.83392,298.11635 493.9772,41.580331 304.97389,42.580216 z"
       id="rect3799-1" />
    <path
       style="fill:#000000;fill-opacity:1;stroke:none"
       d="M 337.25 90.1875 L 200.4375 234.21875 C 224.7913 288.74981 277.35855 364.85148 386.40625 394.4375 C 386.27628 394.23058 386.16232 394.01927 386.03125 393.8125 C 386.03125 393.8125 386.37688 393.77115 387.0625 393.71875 C 364.55661 356.8922 305.75119 236.07138 394 90.1875 L 337.25 90.1875 z M 416.96875 90.1875 C 414.67864 93.344231 318.98229 226.79497 399.46875 381.4375 C 411.9153 338.16352 453.18726 239.37243 577.78125 193.71875 L 468.78125 90.1875 L 416.96875 90.1875 z M 593.8125 208.9375 C 541.99591 227.21404 455.7316 273.1209 417.1875 382.40625 C 460.18187 355.87112 568.55549 306.75966 704.46875 376.375 L 704.46875 314.0625 L 593.8125 208.9375 z M 185.5 249.96875 L 102.6875 337.15625 L 102.6875 404.34375 C 135.92251 422.53066 249.46846 473.93542 373.65625 408.28125 C 335.50187 398.90844 237.74497 364.43316 185.5 249.96875 z M 562.125 361.28125 C 517.98959 361.14889 467.64541 371.52592 416.03125 403 C 462.10799 416.79933 553.85848 458.1354 599.4375 574.875 L 704.46875 464.28125 L 704.46875 398.25 C 684.29014 387.05894 630.75792 361.48707 562.125 361.28125 z M 387.25 420.59375 C 343.32868 447.24915 236.44381 494.10114 102.6875 426.125 L 102.6875 484.59375 L 216.53125 592.75 C 268.96469 572.98613 350.39155 526.25496 387.25 420.59375 z M 422.3125 423.75 C 447.37954 473.75392 482.0466 581.55113 405.65625 708.375 L 472.625 708.375 L 584.34375 590.75 C 565.62015 541.25898 521.2967 462.27266 422.3125 423.75 z M 403.71875 425.53125 C 390.50168 469.44097 349.56154 562.37696 232.5 607.9375 L 338.25 708.375 L 382.6875 708.375 C 388.95079 699.53497 475.3321 573.20469 403.71875 425.53125 z "
       id="rect3001" />
  </g>
</svg>
